<svg xmlns="http://www.w3.org/2000/svg" xmlns:xlink="http://www.w3.org/1999/xlink" width="65" height="41" viewBox="0 0 65 41"><defs><style>.a,.c{fill:#fff;}.a{stroke:#707070;}.b{clip-path:url(#a);}</style><clipPath id="a"><rect class="a" width="65" height="41" transform="translate(502 5840)"/></clipPath></defs><g class="b" transform="translate(-502 -5840)"><path class="c" d="M20.554,3.7c5.488,0,6.139.021,8.307.12,5.57.254,8.172,2.9,8.426,8.426.1,2.167.118,2.818.118,8.306s-.021,6.139-.118,8.306c-.255,5.524-2.85,8.172-8.426,8.426-2.168.1-2.816.12-8.307.12s-6.139-.021-8.306-.12c-5.584-.255-8.172-2.91-8.426-8.427-.1-2.167-.12-2.816-.12-8.306s.022-6.137.12-8.306c.255-5.527,2.85-8.172,8.426-8.426,2.168-.1,2.818-.118,8.306-.118Zm0-3.7c-5.582,0-6.281.024-8.474.123C4.616.466.468,4.608.125,12.079.024,14.273,0,14.972,0,20.554s.024,6.283.123,8.475c.343,7.465,4.484,11.613,11.956,11.956,2.194.1,2.893.123,8.475.123s6.283-.024,8.475-.123c7.458-.343,11.617-4.484,11.954-11.956.1-2.192.125-2.893.125-8.475s-.024-6.281-.123-8.474C40.65,4.623,36.5.468,29.031.125,26.837.024,26.137,0,20.554,0Zm0,10A10.556,10.556,0,1,0,31.109,20.554,10.555,10.555,0,0,0,20.554,10Zm0,17.406a6.851,6.851,0,1,1,6.851-6.851A6.851,6.851,0,0,1,20.554,27.406ZM31.527,7.117a2.467,2.467,0,1,0,2.465,2.467A2.468,2.468,0,0,0,31.527,7.117Z" transform="translate(513.88 5840)"/></g></svg>