<!DOCTYPE svg PUBLIC "-//W3C//DTD SVG 20010904//EN" "http://www.w3.org/TR/2001/REC-SVG-20010904/DTD/svg10.dtd">
<svg version="1.0" xmlns="http://www.w3.org/2000/svg" width="577px" height="171px" viewBox="0 0 5770 1710" preserveAspectRatio="xMidYMid meet">
<g id="layer101" fill="#020102" stroke="none">
<path d="M92 1138 l3 -43 140 -3 139 -3 -41 -27 c-75 -50 -123 -133 -131 -228 l-5 -62 59 -7 c110 -12 105 -13 125 25 10 19 24 55 31 80 18 62 57 83 152 83 53 0 82 -5 113 -22 79 -40 78 -33 81 -488 l3 -403 277 0 277 0 22 33 c20 29 213 615 213 648 1 29 18 -21 120 -349 l104 -332 193 0 c165 0 193 2 193 15 0 8 5 15 11 15 6 0 9 10 7 22 -3 20 -11 24 -62 29 -41 5 -64 13 -73 25 -10 14 -13 105 -13 435 l0 417 31 6 c17 3 45 6 62 6 43 0 80 59 45 73 -7 3 41 6 107 6 l120 1 -40 -19 c-145 -68 -236 -262 -206 -442 16 -100 51 -168 117 -228 69 -64 137 -86 233 -78 37 3 84 13 105 22 60 26 150 117 179 183 28 64 43 159 28 182 -8 12 -49 16 -223 20 l-213 5 0 90 c0 134 34 183 134 193 95 9 181 -52 217 -153 8 -23 17 -30 37 -30 15 0 27 4 26 8 0 5 7 14 17 21 38 28 -34 147 -118 196 l-53 30 100 -1 c55 -1 92 -3 83 -6 -10 -2 -18 -11 -18 -19 0 -8 -4 -14 -10 -14 -5 0 -10 -8 -10 -19 0 -15 10 -19 52 -24 28 -4 55 -12 60 -19 13 -22 10 -552 -4 -566 -7 -7 -27 -12 -46 -12 -25 0 -35 -5 -39 -20 -3 -11 -9 -20 -14 -20 -5 0 -9 -6 -9 -14 0 -13 114 -26 235 -26 52 0 64 9 77 57 2 8 19 2 47 -17 57 -39 112 -53 181 -48 69 5 124 31 157 74 48 63 52 92 53 351 0 229 1 243 19 253 11 5 33 10 49 10 21 0 32 7 43 26 12 23 12 27 -6 40 -17 12 -7 14 80 14 l99 0 -47 -30 c-116 -73 -188 -279 -157 -450 30 -171 131 -276 275 -288 63 -5 115 12 173 54 l22 16 0 -131 0 -131 -25 -5 c-14 -3 -37 -7 -51 -10 -17 -4 -24 -11 -20 -20 3 -9 -1 -15 -10 -15 -9 0 -14 -7 -12 -18 3 -15 20 -17 151 -20 123 -2 147 0 147 12 0 8 6 16 13 18 9 4 13 110 17 469 l5 464 43 3 c28 2 42 8 42 18 0 8 5 14 10 14 17 0 11 28 -7 39 -13 8 14 10 97 10 l115 0 -45 -24 c-67 -34 -128 -103 -163 -181 -42 -94 -49 -221 -18 -321 28 -94 91 -172 168 -209 50 -25 70 -29 143 -29 73 0 93 4 142 28 107 53 196 186 199 298 1 33 -1 63 -5 67 -4 4 -105 9 -224 12 l-217 5 1 81 c2 168 75 232 219 193 51 -14 120 -84 136 -139 11 -34 16 -40 41 -40 18 0 28 5 28 15 0 8 5 15 10 15 19 0 10 52 -17 101 -27 51 -70 90 -125 114 -31 14 -28 14 62 13 52 0 87 -2 78 -5 -10 -2 -18 -11 -18 -19 0 -8 -4 -14 -10 -14 -29 0 9 -58 208 -324 120 -160 221 -296 225 -303 8 -12 -20 -11 -128 3 -84 11 -153 57 -181 120 -18 42 -41 60 -61 48 -9 -5 -15 -14 -13 -18 1 -5 -3 -12 -8 -15 -6 -4 -8 -47 -5 -114 l6 -107 304 0 c304 0 305 0 324 23 10 12 18 27 19 33 0 7 -98 142 -218 300 -120 159 -222 295 -227 303 -7 12 5 13 72 7 184 -15 251 -67 299 -233 6 -23 39 -13 57 17 16 26 17 45 11 151 -5 83 -11 125 -21 135 -13 12 -10 14 16 14 30 0 31 1 31 45 l0 45 -2801 0 -2800 0 3 -42z m881 -55 c-7 -2 -13 -11 -13 -19 0 -8 -4 -14 -10 -14 -5 0 -10 -8 -10 -19 0 -15 10 -20 47 -26 59 -9 89 -28 102 -67 7 -20 11 -168 11 -418 l0 -388 -22 -6 c-44 -11 -96 -7 -102 10 -3 9 -6 177 -6 373 0 389 -3 419 -55 488 -15 19 -48 48 -73 64 l-46 29 95 -1 c51 0 88 -3 82 -6z m713 -17 c-44 -40 -35 -53 40 -59 37 -3 72 -11 80 -19 12 -12 14 -75 12 -373 l-3 -359 -57 180 c-216 683 -202 644 -239 644 -39 0 -39 1 -185 -452 -66 -202 -123 -368 -127 -368 -4 0 -6 160 -5 355 3 401 -1 381 84 391 40 5 52 11 62 32 8 19 9 29 1 39 -10 11 21 13 175 13 l187 0 -25 -24z m1584 17 c-20 -8 -39 -34 -40 -54 0 -12 13 -19 45 -23 35 -6 46 -12 50 -29 3 -12 4 -139 3 -282 l-3 -260 -26 -12 c-19 -9 -35 -10 -65 -2 -49 14 -77 39 -106 98 -21 43 -22 58 -23 259 0 230 0 232 55 232 18 0 31 9 43 29 17 28 17 30 0 40 -14 8 -7 10 32 10 28 0 43 -3 35 -6z m858 0 c-9 -2 -23 -17 -30 -33 l-13 -29 -25 23 c-14 13 -34 28 -45 34 -16 9 -5 11 55 11 41 -1 67 -3 58 -6z m-128 -101 c80 -58 114 -303 64 -479 -11 -41 -22 -56 -50 -73 -71 -45 -149 -9 -173 77 -28 102 -21 384 12 452 25 52 92 62 147 23z m-1400 -411 c0 -43 -5 -92 -11 -110 -14 -38 -54 -61 -109 -61 -74 0 -110 62 -110 188 l0 62 115 0 115 0 0 -79z m2210 12 c0 -130 -33 -183 -114 -183 -79 0 -111 45 -122 174 l-7 76 122 0 121 0 0 -67z"/>
<path d="M2381 281 c-7 -5 -10 -14 -7 -20 4 -7 -1 -11 -13 -11 -14 0 19 -37 110 -125 120 -117 132 -125 168 -125 32 0 44 6 65 31 14 17 26 35 26 41 0 19 -60 66 -182 142 -121 76 -141 84 -167 67z"/>
</g>
<g id="layer102" fill="#101a95" stroke="none">
<path d="M117 1163 c-4 -3 -7 -17 -7 -30 l0 -23 2786 0 c1854 0 2783 -3 2779 -10 -3 -5 -1 -10 4 -10 14 0 14 13 -1 28 -7 7 -9 12 -5 12 4 0 3 9 -3 20 -11 20 -21 20 -2779 20 -1522 0 -2771 -3 -2774 -7z"/>
</g>
<g id="layer103" fill="#484a4a" stroke="none">
<path d="M268 1606 c-81 -29 -128 -82 -128 -144 0 -41 14 -69 54 -105 71 -65 168 -88 267 -63 59 16 65 16 76 0 10 -14 13 -14 17 -3 8 26 16 99 11 99 -3 0 -23 -18 -44 -39 -33 -33 -48 -40 -93 -46 -104 -13 -175 24 -199 103 -25 85 17 159 102 182 65 18 152 7 201 -25 22 -15 42 -24 45 -21 8 7 -70 55 -108 66 -48 14 -157 12 -201 -4z"/>
<path d="M722 1601 c-93 -32 -142 -102 -121 -173 11 -41 87 -113 137 -129 42 -15 129 -17 183 -6 59 12 125 62 143 108 59 147 -147 268 -342 200z m197 -17 c48 -19 71 -61 71 -132 0 -143 -180 -206 -279 -98 -34 36 -40 126 -13 175 36 66 133 90 221 55z"/>
<path d="M1363 1502 c-81 -65 -154 -121 -161 -126 -10 -6 -12 16 -10 106 l3 113 35 6 c21 4 -2 6 -55 6 -49 0 -75 -2 -57 -4 17 -2 32 -10 33 -16 4 -58 -2 -252 -8 -258 -5 -5 -26 -15 -48 -23 l-40 -15 68 0 68 -1 149 120 150 121 0 -110 0 -111 -27 -6 c-52 -11 -48 -12 42 -12 52 0 77 3 60 7 l-30 6 -3 158 c-1 86 -6 157 -11 157 -5 0 -76 -53 -158 -118z"/>
<path d="M1620 1565 c0 -30 2 -55 5 -55 2 0 12 14 20 31 20 38 68 59 138 59 82 0 119 -47 68 -87 -9 -7 -53 -26 -99 -43 -85 -32 -142 -71 -142 -96 0 -7 12 -27 28 -44 37 -42 97 -55 180 -39 49 9 65 9 77 -1 13 -11 15 -5 15 44 0 31 -4 56 -10 56 -5 0 -10 -6 -10 -14 0 -25 -58 -65 -105 -72 -70 -10 -124 20 -109 60 5 14 73 46 166 80 66 24 98 52 98 85 0 72 -110 108 -246 82 -24 -4 -49 -4 -58 1 -14 8 -16 1 -16 -47z"/>
<path d="M2975 1606 c-22 -9 -48 -25 -57 -37 -19 -23 -20 -32 -20 -148 0 -97 -8 -119 -50 -124 -18 -2 19 -4 82 -4 63 0 99 2 80 6 l-35 6 -3 117 c-2 109 -1 118 21 143 28 34 103 44 172 25 68 -19 75 -35 75 -167 l0 -113 -27 -6 c-52 -11 -48 -12 47 -12 95 0 99 1 48 12 l-28 6 0 93 c0 123 -11 160 -57 188 -47 29 -186 37 -248 15z"/>
<path d="M3478 1606 c-118 -42 -163 -141 -101 -218 77 -93 175 -124 294 -93 60 15 64 15 76 -1 7 -10 14 -16 16 -13 7 7 16 109 11 109 -3 0 -20 -15 -37 -34 -57 -60 -168 -72 -243 -26 -61 38 -81 143 -39 207 45 68 202 84 286 29 22 -15 43 -26 45 -23 8 7 -71 57 -107 67 -48 14 -157 12 -201 -4z"/>
<path d="M4343 1606 c-85 -27 -133 -81 -133 -150 0 -43 18 -86 37 -86 7 0 13 -4 13 -10 0 -20 79 -61 137 -71 79 -14 157 2 220 44 153 103 42 289 -171 286 -34 0 -80 -6 -103 -13z m195 -25 c21 -11 44 -31 51 -45 19 -35 17 -126 -4 -165 -34 -68 -168 -92 -235 -43 -82 60 -77 192 9 249 44 30 126 31 179 4z"/>
<path d="M2105 1601 l30 -6 3 -143 3 -142 -61 0 c-53 0 -64 3 -85 26 l-25 27 0 -37 0 -36 328 0 c189 0 346 5 372 11 52 12 90 43 90 74 0 28 -38 63 -78 71 -18 4 -32 10 -32 14 0 11 102 105 130 120 14 7 39 17 55 21 22 5 11 7 -40 8 l-70 1 -83 -76 c-101 -91 -125 -95 -130 -22 -4 58 10 85 45 91 16 2 -19 4 -77 4 -58 0 -91 -2 -75 -6 l30 -6 0 -145 0 -145 -27 -3 c-26 -3 -28 0 -28 30 l0 33 -19 -24 c-16 -21 -30 -26 -85 -29 l-67 -4 3 143 3 144 30 6 c17 4 -15 7 -70 7 -55 0 -86 -3 -70 -7z m540 -175 c35 -23 34 -68 -2 -96 -21 -16 -38 -20 -77 -18 l-51 3 -3 59 c-2 40 1 62 10 68 19 13 94 3 123 -16z"/>
<path d="M3948 1600 c21 -9 22 -14 22 -150 l0 -140 -55 0 c-46 0 -60 4 -81 25 -30 30 -34 31 -34 6 0 -51 -2 -51 210 -51 l198 0 5 33 c6 43 2 45 -27 14 -22 -24 -33 -27 -86 -27 l-61 0 3 143 3 142 35 6 c21 4 -3 7 -60 7 -66 1 -88 -2 -72 -8z"/>
<path d="M4725 1601 l30 -6 0 -145 0 -145 -35 -6 c-19 -4 24 -7 95 -7 72 -1 150 3 175 9 52 12 90 43 90 74 0 28 -38 63 -78 71 -18 4 -32 10 -32 14 0 13 105 107 139 124 64 34 77 25 183 -134 54 -79 104 -150 111 -158 11 -11 28 11 100 131 90 149 108 172 142 180 11 2 -25 5 -80 5 -55 0 -91 -2 -80 -5 35 -9 38 -20 15 -57 l-22 -36 -97 0 -97 0 -23 40 c-23 42 -23 43 24 53 11 3 -38 5 -110 6 l-130 1 -83 -76 c-101 -91 -125 -95 -130 -22 -4 58 10 85 45 91 16 2 -19 4 -77 4 -58 0 -91 -2 -75 -6z m735 -115 c0 -3 -16 -32 -36 -66 l-37 -61 -38 58 c-22 32 -39 61 -39 66 0 4 34 7 75 7 41 0 75 -2 75 -4z m-495 -60 c35 -23 34 -68 -2 -96 -21 -16 -38 -20 -77 -18 l-51 3 -3 59 c-2 40 1 62 10 68 19 13 94 3 123 -16z"/>
<path d="M333 1062 c-23 -15 -50 -39 -61 -52 -24 -31 -62 -105 -62 -121 0 -7 12 12 28 42 43 85 122 130 262 149 51 7 49 7 -35 9 -83 1 -93 -1 -132 -27z"/>
<path d="M640 1079 c136 -17 224 -69 267 -156 l28 -58 3 -393 3 -392 64 0 c112 0 105 -28 103 432 l-3 393 -2 -386 -3 -387 -23 -6 c-43 -11 -95 -7 -101 10 -3 9 -6 177 -6 373 0 389 -3 419 -55 488 -15 19 -48 48 -73 64 -44 28 -51 29 -156 28 -107 -1 -109 -2 -46 -10z"/>
<path d="M973 1084 c-7 -3 -13 -12 -13 -20 0 -8 -4 -14 -10 -14 -5 0 -9 -10 -9 -22 1 -16 3 -18 6 -7 3 14 24 18 108 24 143 9 275 -2 275 -24 0 -9 6 -4 15 13 27 51 14 54 -183 55 -97 0 -183 -3 -189 -5z"/>
<path d="M1685 1066 c-16 -15 -25 -32 -22 -43 4 -14 5 -15 6 -2 1 14 23 17 151 23 191 9 330 0 330 -22 0 -13 3 -12 15 4 18 24 19 50 1 57 -8 3 -113 6 -234 7 l-220 1 -27 -25z"/>
<path d="M2355 1071 c-55 -26 -115 -80 -143 -129 -22 -39 -21 -39 40 22 81 80 141 101 262 94 129 -9 223 -67 257 -162 13 -36 35 -47 45 -22 7 18 -20 81 -52 123 -14 18 -49 47 -77 63 -50 29 -57 30 -172 30 -96 0 -128 -4 -160 -19z"/>
<path d="M2818 1083 c-10 -2 -18 -11 -18 -19 0 -8 -4 -14 -10 -14 -5 0 -9 -10 -9 -22 1 -16 3 -18 6 -6 3 13 25 17 126 23 67 4 159 3 205 -2 75 -8 84 -7 93 8 17 32 -20 39 -203 38 -95 -1 -181 -3 -190 -6z"/>
<path d="M3270 1084 c-9 -3 -21 -14 -29 -26 -13 -21 -13 -21 89 -13 138 9 288 -2 292 -23 2 -10 8 -7 18 12 25 48 3 54 -188 54 -92 0 -174 -2 -182 -4z"/>
<path d="M3767 1060 c-44 -27 -127 -135 -127 -164 0 -5 13 10 29 35 39 61 79 96 130 114 90 32 182 13 246 -51 46 -47 55 -44 55 16 0 27 3 29 53 35 28 3 75 4 102 1 28 -2 65 -5 83 -5 17 -1 32 -5 32 -10 0 -6 -15 -12 -32 -14 -32 -4 -32 -4 5 -5 27 -2 37 2 37 13 0 8 5 15 10 15 18 0 11 29 -9 40 -21 11 -211 14 -248 4 -12 -3 -28 -19 -36 -35 l-14 -29 -19 21 c-35 39 -69 49 -162 49 -81 0 -92 -3 -135 -30z"/>
<path d="M4550 1065 c-56 -28 -128 -102 -147 -147 l-13 -33 22 30 c67 91 146 135 254 143 87 6 158 -10 218 -48 49 -31 93 -92 103 -142 6 -29 5 -31 -20 -26 -15 3 -27 1 -27 -3 0 -5 14 -9 30 -9 20 0 30 5 30 15 0 8 5 15 10 15 15 0 12 51 -5 80 -19 34 -19 45 3 29 15 -11 15 -11 4 1 -7 8 -16 15 -20 15 -4 1 -23 16 -42 34 -61 59 -100 71 -235 70 -106 0 -125 -3 -165 -24z"/>
<path d="M5008 1083 c-10 -2 -18 -11 -18 -19 0 -8 -4 -14 -10 -14 -12 0 -13 -37 -1 -44 5 -4 7 2 4 13 -7 27 17 28 352 27 l290 -1 7 -115 c4 -63 9 -124 10 -135 3 -19 4 -19 16 3 18 32 5 257 -15 278 -12 12 -67 14 -316 13 -166 -1 -310 -3 -319 -6z"/>
<path d="M1480 1061 c-9 -17 -6 -20 17 -23 30 -3 21 22 253 -705 35 -112 68 -203 72 -203 4 0 7 188 6 418 l-3 417 -5 -354 -5 -355 -57 180 c-215 681 -202 644 -238 644 -19 0 -33 -7 -40 -19z"/>
<path d="M2503 1023 c9 -2 25 -2 35 0 9 3 1 5 -18 5 -19 0 -27 -2 -17 -5z"/>
<path d="M2423 1000 c-18 -10 -42 -38 -53 -60 -22 -44 -42 -177 -33 -222 l5 -28 226 0 225 0 -7 -57 c-11 -94 -34 -149 -89 -211 l-51 -57 56 54 c36 34 66 75 81 110 29 63 43 158 28 181 -8 12 -49 16 -223 20 l-213 5 -3 70 c-5 112 20 173 83 201 17 7 23 13 15 14 -8 0 -29 -9 -47 -20z"/>
<path d="M3086 988 c-13 -18 -16 -56 -16 -204 0 -188 8 -261 36 -320 23 -49 75 -85 128 -91 38 -5 48 -2 70 20 34 34 33 49 -2 31 -22 -10 -37 -11 -68 -3 -49 14 -77 39 -106 98 -21 43 -22 58 -23 259 0 178 2 214 15 222 13 8 13 10 -2 10 -9 0 -24 -10 -32 -22z"/>
<path d="M3519 993 c-11 -12 -15 -77 -19 -284 -5 -250 -6 -269 -26 -296 -11 -15 -24 -35 -29 -43 -8 -13 -7 -13 9 -1 9 8 29 35 44 60 l27 46 3 255 c2 223 5 257 19 268 15 11 15 12 1 12 -8 0 -22 -7 -29 -17z"/>
<path d="M4272 998 c-9 -9 -12 -121 -12 -442 0 -237 -3 -448 -6 -469 l-7 -37 -138 0 c-101 0 -139 3 -142 13 -2 7 -3 6 -3 -3 2 -22 296 -28 296 -6 0 8 6 16 13 18 9 4 13 110 17 471 3 257 3 467 0 467 -4 0 -11 -5 -18 -12z"/>
<path d="M5170 1001 c0 -5 10 -22 23 -38 13 -15 121 -157 239 -314 157 -209 219 -284 227 -276 6 6 11 16 11 23 0 6 -101 146 -225 310 -176 233 -231 300 -250 302 -14 2 -25 -1 -25 -7z"/>
<path d="M1200 980 c-11 -11 -22 -30 -25 -42 -3 -13 -4 -201 -3 -418 l3 -395 22 65 c14 38 19 66 13 68 -6 2 -10 128 -10 345 0 278 3 347 14 370 17 32 13 34 -14 7z"/>
<path d="M2013 989 c-10 -10 -13 -113 -13 -445 l0 -433 22 -15 c14 -10 44 -16 75 -16 41 0 53 -3 53 -15 0 -14 -24 -15 -190 -13 -105 2 -190 0 -190 -4 0 -5 88 -8 195 -8 167 0 195 2 195 15 0 8 5 15 11 15 6 0 9 10 7 23 -3 19 -11 23 -61 28 -32 4 -64 12 -70 18 -9 9 -13 131 -17 437 -4 340 -7 423 -17 413z"/>
<path d="M3862 993 c-45 -18 -79 -202 -68 -378 11 -187 45 -245 145 -245 37 0 49 6 82 39 44 43 54 74 12 35 -32 -30 -62 -38 -108 -30 -75 14 -99 84 -99 291 0 157 13 246 41 277 17 19 16 20 -5 11z"/>
<path d="M4602 977 c-36 -39 -54 -98 -60 -194 l-5 -93 229 -2 229 -3 -3 -35 c-8 -102 -33 -167 -89 -233 -25 -30 -22 -28 12 8 65 68 104 151 106 226 1 33 -1 63 -5 67 -4 4 -105 9 -224 12 l-217 5 1 82 c1 68 6 92 27 133 14 27 25 50 23 50 -1 0 -12 -10 -24 -23z"/>
<path d="M2902 704 c-1 -204 -5 -274 -15 -282 -6 -6 -28 -12 -47 -14 -24 -2 -36 -9 -38 -20 -3 -14 4 -18 30 -18 19 0 43 6 54 14 18 13 19 30 22 223 2 114 1 244 0 288 -2 44 -5 -42 -6 -191z"/>
<path d="M3334 710 c0 -146 2 -205 3 -132 2 72 2 192 0 265 -1 72 -3 13 -3 -133z"/>
<path d="M5510 935 c19 -19 36 -35 39 -35 3 0 -10 16 -29 35 -19 19 -36 35 -39 35 -3 0 10 -16 29 -35z"/>
<path d="M413 908 c-21 -25 -36 -59 -52 -123 l-10 -40 19 25 c11 14 24 43 30 65 6 22 17 52 25 68 17 33 15 34 -12 5z"/>
<path d="M726 895 c24 -39 24 -40 24 -28 0 6 -9 21 -21 34 l-20 24 17 -30z"/>
<path d="M1406 854 c-10 -31 -16 -58 -14 -60 3 -2 12 21 22 52 10 31 16 58 14 60 -3 2 -12 -21 -22 -52z"/>
<path d="M202 840 c0 -19 2 -27 5 -17 2 9 2 25 0 35 -3 9 -5 1 -5 -18z"/>
<path d="M4083 785 c0 -22 2 -30 4 -17 2 12 2 30 0 40 -3 9 -5 -1 -4 -23z"/>
<path d="M4352 760 c0 -19 2 -27 5 -17 2 9 2 25 0 35 -3 9 -5 1 -5 -18z"/>
<path d="M268 763 c12 -2 30 -2 40 0 9 3 -1 5 -23 4 -22 0 -30 -2 -17 -4z"/>
<path d="M1513 663 c-46 -149 -180 -565 -188 -588 -7 -19 -7 -19 10 -4 9 10 61 154 116 325 107 335 115 364 101 364 -5 0 -22 -44 -39 -97z"/>
<path d="M4353 660 c0 -30 2 -43 4 -27 2 15 2 39 0 55 -2 15 -4 2 -4 -28z"/>
<path d="M2342 548 c6 -122 22 -162 75 -185 43 -18 90 -11 127 18 28 22 56 69 56 91 -1 7 -7 -1 -14 -17 -16 -36 -52 -55 -107 -55 -72 0 -109 62 -109 188 0 51 -3 62 -16 62 -15 0 -16 -12 -12 -102z"/>
<path d="M2603 570 c0 -47 2 -66 4 -42 2 23 2 61 0 85 -2 23 -4 4 -4 -43z"/>
<path d="M4543 554 c8 -114 27 -161 77 -188 62 -33 156 5 175 71 6 20 3 20 -24 -7 -24 -24 -38 -30 -74 -30 -86 0 -125 66 -127 218 0 23 -5 32 -17 32 -14 0 -15 -11 -10 -96z"/>
<path d="M4813 590 c0 -36 2 -50 4 -32 2 17 2 47 0 65 -2 17 -4 3 -4 -33z"/>
<path d="M4083 595 c0 -22 2 -30 4 -17 2 12 2 30 0 40 -3 9 -5 -1 -4 -23z"/>
<path d="M5030 584 c-11 -13 -10 -16 8 -21 13 -3 23 -16 28 -35 10 -47 80 -110 144 -131 61 -20 240 -35 240 -21 0 5 -10 20 -21 34 -11 14 -18 20 -15 13 7 -12 -22 -11 -129 3 -81 10 -165 66 -181 119 -8 26 -34 55 -49 55 -7 0 -18 -7 -25 -16z"/>
<path d="M3060 388 c0 -56 1 -60 15 -42 8 10 15 27 15 37 0 11 5 15 11 11 7 -4 1 7 -12 25 -12 17 -24 31 -26 31 -2 0 -3 -28 -3 -62z"/>
<path d="M5023 395 c0 -33 2 -45 4 -27 2 18 2 45 0 60 -2 15 -4 0 -4 -33z"/>
<path d="M4449 417 c15 -19 71 -61 71 -54 0 2 -19 19 -42 37 -24 19 -37 26 -29 17z"/>
<path d="M4069 393 c-10 -11 -10 -14 -1 -9 9 6 12 -22 12 -123 l0 -131 -25 -5 c-14 -3 -37 -7 -51 -10 -34 -8 -25 -29 14 -33 21 -2 37 3 51 17 19 19 21 33 21 166 0 80 -2 145 -4 145 -2 0 -10 -8 -17 -17z"/>
<path d="M1236 334 c-4 -14 -5 -28 -3 -31 3 -2 8 8 11 23 4 14 5 28 3 31 -3 2 -8 -8 -11 -23z"/>
<path d="M2927 333 c18 -2 50 -2 70 0 21 2 7 4 -32 4 -38 0 -55 -2 -38 -4z"/>
<path d="M2438 323 c17 -2 47 -2 65 0 17 2 3 4 -33 4 -36 0 -50 -2 -32 -4z"/>
<path d="M3268 323 c17 -2 47 -2 65 0 17 2 3 4 -33 4 -36 0 -50 -2 -32 -4z"/>
<path d="M3878 323 c18 -2 45 -2 60 0 15 2 0 4 -33 4 -33 0 -45 -2 -27 -4z"/>
<path d="M4637 323 c18 -2 50 -2 70 0 21 2 7 4 -32 4 -38 0 -55 -2 -38 -4z"/>
<path d="M2383 283 c-21 -8 -15 -23 12 -33 36 -14 244 -147 277 -178 16 -14 24 -31 21 -41 -3 -10 3 -7 16 8 12 13 21 28 21 33 0 19 -61 67 -182 142 -115 72 -137 81 -165 69z"/>
<path d="M761 68 l-1 -28 282 0 c155 0 279 2 276 5 -2 3 -127 5 -276 5 l-271 1 -4 22 c-4 18 -4 18 -6 -5z"/>
</g>
<g id="layer104" fill="#010dfb" stroke="none">
<path d="M110 1130 c0 -20 7 -20 2774 -20 2308 0 2775 2 2785 13 6 8 8 17 4 20 -3 4 -1257 7 -2785 7 -2771 0 -2778 0 -2778 -20z"/>
</g>
<g id="layer105" fill="#727171" stroke="none">
<path d="M317 1608 c16 -6 16 -7 -3 -7 -12 -1 -36 -11 -55 -24 -26 -17 -34 -31 -36 -57 l-3 -35 17 35 c24 47 71 71 148 78 36 2 65 8 65 11 0 4 -34 7 -75 7 -42 0 -68 -4 -58 -8z"/>
<path d="M764 1609 c-3 -5 -12 -6 -22 -3 -14 5 -15 4 -2 -5 13 -9 13 -11 -2 -11 -10 0 -27 -13 -39 -30 -12 -16 -26 -27 -30 -24 -4 2 -11 -1 -15 -7 -4 -7 -3 -9 4 -5 6 3 16 -2 22 -11 7 -11 10 -12 7 -3 -4 17 45 68 80 81 37 14 108 11 152 -7 66 -26 81 -82 59 -211 -6 -30 -37 -63 -54 -56 -8 3 -14 0 -14 -6 0 -6 -6 -8 -14 -5 -8 3 -17 1 -21 -5 -8 -14 -72 -14 -80 -1 -4 6 -16 8 -27 4 -14 -4 -18 -2 -14 5 5 7 1 8 -10 4 -11 -4 -15 -2 -11 4 4 5 -6 21 -21 34 l-27 24 24 -27 c14 -16 20 -28 14 -28 -17 0 -72 67 -79 96 -4 14 -4 40 -1 59 4 26 2 35 -11 38 -13 2 -8 12 23 42 22 21 31 34 20 28 -83 -45 -105 -160 -40 -211 13 -11 21 -23 17 -27 -4 -5 -1 -5 6 -1 6 4 12 2 12 -4 0 -6 21 -21 48 -33 64 -29 178 -29 242 0 59 26 105 70 92 86 -5 7 -12 32 -16 56 -8 56 -30 97 -62 117 -19 13 -22 19 -12 26 8 6 5 7 -11 3 -17 -5 -21 -4 -16 5 5 9 2 10 -14 5 -11 -3 -21 -2 -21 2 0 11 -129 12 -136 2z"/>
<path d="M1520 1460 c3 -87 2 -156 -2 -152 -4 4 -9 61 -10 127 -3 140 -8 145 -80 88 -25 -21 -72 -58 -103 -83 -32 -25 -65 -53 -74 -63 -21 -24 -67 -48 -75 -40 -3 4 -5 18 -5 32 1 17 3 20 6 9 5 -21 19 -23 29 -6 4 7 3 8 -5 4 -9 -6 -11 20 -9 106 l3 113 35 6 35 6 -32 2 c-17 0 -35 -4 -38 -9 -4 -6 -15 -8 -25 -5 -16 5 -18 -4 -16 -133 1 -86 -3 -139 -9 -139 -5 -1 -28 -8 -50 -16 l-40 -16 68 0 68 -1 149 120 150 121 0 -110 0 -111 -27 -6 c-52 -11 -48 -12 42 -12 52 0 77 3 60 7 l-30 6 -3 158 c-1 86 -6 157 -10 157 -4 0 -5 -72 -2 -160z m-343 -27 c-2 -21 -4 -6 -4 32 0 39 2 55 4 38 2 -18 2 -50 0 -70z"/>
<path d="M1715 1609 c-3 -3 -17 -4 -32 -2 -20 3 -24 2 -14 -5 18 -13 -3 -26 -27 -17 -14 5 -14 7 -2 15 11 7 11 10 2 10 -17 0 -24 -21 -20 -66 l3 -39 18 33 c23 41 69 62 139 62 64 -1 88 -17 94 -63 5 -41 -10 -54 -110 -91 -35 -14 -76 -32 -89 -41 -14 -9 -33 -15 -43 -13 -29 5 -28 -28 3 -62 38 -42 97 -55 181 -39 49 9 65 9 77 -1 13 -11 15 -5 15 44 0 31 -4 56 -9 56 -6 0 -7 -15 -4 -33 4 -28 2 -33 -17 -34 -20 -2 -21 0 -9 16 8 9 4 7 -7 -5 -12 -13 -25 -20 -28 -17 -3 4 -6 2 -6 -4 0 -6 -9 -9 -20 -6 -11 3 -20 0 -20 -6 0 -14 -53 -14 -67 0 -6 6 -19 12 -29 14 -11 1 -18 8 -16 15 1 6 -2 9 -8 5 -15 -10 -25 25 -10 38 10 9 11 9 6 0 -4 -7 -2 -13 3 -13 6 0 11 4 11 9 0 8 77 44 162 75 49 18 98 51 98 67 0 5 -3 8 -7 8 -24 -4 -33 4 -33 25 0 14 -9 31 -21 39 -15 11 -17 16 -7 21 7 3 2 3 -11 0 -13 -4 -21 -2 -18 3 3 5 -22 9 -59 9 -36 0 -67 -3 -69 -7z"/>
<path d="M3016 1608 c2 -3 -4 -9 -15 -13 -25 -8 -44 -31 -36 -44 3 -7 15 0 29 15 27 33 103 43 171 24 68 -19 75 -35 75 -167 l0 -113 -27 -6 c-52 -11 -48 -12 46 -13 96 -1 117 5 46 12 l-40 4 0 121 c0 66 -4 115 -8 109 -5 -7 -7 -2 -5 13 2 19 -1 24 -15 22 -10 -2 -16 3 -15 10 2 8 -4 12 -16 10 -12 -2 -15 1 -11 8 5 9 1 10 -14 5 -11 -3 -21 -3 -21 2 0 5 -33 9 -74 9 -41 0 -72 -4 -70 -8z"/>
<path d="M3527 1609 c14 -5 11 -8 -14 -13 -49 -11 -80 -40 -81 -77 l-1 -32 17 34 c23 46 90 79 159 79 29 0 53 4 53 8 0 4 -34 8 -75 8 -42 0 -68 -3 -58 -7z"/>
<path d="M4380 1607 c0 -4 -10 -5 -21 -2 -15 5 -19 4 -15 -4 4 -6 -3 -16 -16 -21 -14 -7 -24 -20 -24 -35 l-2 -25 20 25 c44 57 144 73 216 36 50 -25 66 -57 63 -128 -3 -82 -4 -92 -12 -87 -7 4 -23 -25 -21 -38 1 -3 -5 -9 -14 -12 -8 -3 -12 -1 -9 4 3 6 -1 7 -9 4 -9 -3 -14 -10 -11 -14 3 -5 -4 -6 -15 -3 -11 3 -20 1 -20 -5 0 -6 -15 -13 -32 -15 -18 -2 -8 -3 22 0 88 6 202 73 199 117 0 7 -3 6 -6 -1 -10 -27 -23 -11 -23 27 0 54 -20 100 -58 132 -21 17 -27 28 -19 32 6 3 1 3 -12 0 -17 -4 -21 -3 -16 6 5 9 1 10 -15 5 -14 -4 -20 -3 -17 2 4 6 -21 10 -63 9 -39 0 -70 -4 -70 -9z"/>
<path d="M2105 1601 l30 -6 3 -143 3 -142 -43 0 c-24 0 -54 -3 -67 -7 -17 -4 -22 -3 -17 5 5 8 2 10 -8 6 -14 -6 -21 5 -17 29 0 4 -4 7 -9 7 -5 0 -10 -13 -10 -30 l0 -30 328 0 c189 0 346 5 372 11 52 12 90 43 90 74 0 21 -45 73 -55 63 -3 -2 6 -15 20 -28 14 -13 25 -32 25 -41 0 -25 -24 -14 -41 18 -8 15 -27 34 -43 44 l-28 17 43 48 c52 56 123 104 158 105 18 1 20 3 8 6 -9 2 -33 -1 -51 -7 -19 -6 -47 -13 -62 -16 -25 -5 -26 -3 -13 13 7 10 1 7 -14 -6 -27 -25 -39 -43 -14 -22 8 6 17 8 20 5 3 -4 -16 -24 -43 -46 -28 -22 -48 -43 -45 -47 2 -4 -1 -8 -8 -9 -32 -2 -74 -12 -97 -21 -20 -8 -15 -9 25 -5 66 7 119 -19 123 -59 2 -16 -2 -35 -9 -43 -10 -12 -9 -13 7 -8 10 4 16 4 13 0 -4 -4 -16 -8 -28 -11 -11 -2 -26 -7 -32 -10 -18 -12 -109 -13 -102 -2 4 6 1 7 -7 2 -22 -14 -29 18 -29 139 0 135 -4 144 -67 151 -31 3 -33 3 -9 -3 l30 -7 0 -145 c0 -144 0 -145 -23 -148 -13 -2 -33 5 -45 15 -11 10 -17 12 -12 4 6 -10 2 -12 -14 -6 -11 3 -21 3 -21 -2 0 -4 -25 -6 -55 -5 l-55 4 -2 136 -2 137 -6 -140 c-6 -168 -21 -164 -22 6 -1 115 -2 121 -26 139 -14 11 -36 19 -51 19 -25 -1 -25 -2 4 -8z"/>
<path d="M2216 1602 c-3 -5 8 -6 25 -4 16 2 29 6 29 8 0 8 -49 4 -54 -4z"/>
<path d="M2522 1598 c-7 -7 -12 -16 -12 -22 0 -5 6 -3 13 6 6 9 23 19 37 21 l25 4 -25 2 c-15 0 -31 -4 -38 -11z"/>
<path d="M3948 1600 c21 -9 22 -14 22 -148 l0 -140 -62 -4 c-64 -5 -98 3 -98 24 0 6 8 4 18 -5 28 -25 34 -20 9 6 -26 28 -42 19 -33 -17 l6 -26 200 0 c110 0 200 4 200 9 0 10 -48 21 -52 12 -2 -4 -34 -4 -73 -1 l-70 5 -3 131 -3 130 -28 17 c-16 9 -35 17 -43 16 -7 0 -3 -4 10 -9z"/>
<path d="M4725 1602 l30 -7 0 -145 0 -145 -35 -6 c-19 -4 24 -7 95 -7 72 -1 150 3 175 9 52 12 90 43 90 74 0 22 -45 73 -56 63 -3 -4 6 -14 20 -23 16 -11 26 -27 26 -41 0 -30 -22 -23 -41 13 -8 15 -27 34 -43 44 l-28 17 43 48 c24 26 64 61 89 77 40 26 42 28 15 22 -75 -18 -79 -18 -64 2 7 10 1 7 -14 -6 -27 -25 -39 -43 -14 -22 8 6 17 8 20 5 3 -4 -16 -24 -43 -46 -28 -22 -48 -43 -45 -47 2 -4 -1 -8 -8 -9 -32 -2 -74 -12 -97 -21 -20 -8 -15 -9 25 -5 66 7 119 -19 123 -59 2 -16 -2 -35 -9 -43 -10 -12 -9 -13 7 -8 10 4 16 4 13 0 -4 -4 -16 -8 -28 -11 -11 -2 -26 -7 -32 -10 -18 -12 -109 -13 -102 -2 4 6 1 7 -7 2 -22 -14 -29 18 -29 139 0 135 -4 144 -67 151 -31 3 -33 3 -9 -3z"/>
<path d="M4842 1598 c-7 -7 -12 -16 -12 -22 0 -5 6 -3 13 6 6 9 23 19 37 21 l25 4 -25 2 c-15 0 -31 -4 -38 -11z"/>
<path d="M5165 1601 c25 -5 44 -27 108 -121 145 -216 137 -207 153 -185 8 11 12 25 10 32 -3 7 0 15 6 19 7 5 8 2 3 -7 -18 -32 13 8 35 45 15 25 18 37 9 32 -8 -4 -3 2 11 14 14 12 20 19 13 16 -6 -4 -15 -1 -19 5 -4 7 -3 9 4 5 13 -8 33 12 63 61 12 21 31 48 42 60 19 22 19 22 -2 16 -12 -3 -24 -10 -27 -15 -3 -5 -21 1 -40 12 -18 12 -42 19 -51 17 -14 -4 -13 -5 4 -6 33 -2 37 -18 13 -56 l-22 -35 -101 -1 c-113 -1 -100 -16 16 -18 65 -1 76 -6 59 -26 -22 -25 -53 -85 -43 -85 5 0 13 9 16 20 3 11 11 20 16 20 16 0 -17 -41 -45 -56 -24 -12 -26 -11 -24 4 2 9 -3 17 -11 17 -8 0 -16 6 -19 14 -3 9 0 11 8 6 9 -5 11 -4 6 4 -4 6 -12 9 -17 5 -6 -3 -9 2 -7 12 2 12 -2 18 -10 16 -7 -1 -12 3 -11 10 3 27 -2 36 -22 41 -13 3 -19 12 -17 24 2 11 -2 17 -10 15 -7 -1 -12 3 -11 10 3 23 -1 41 -7 36 -3 -4 -14 2 -25 13 -12 12 -32 19 -51 18 l-33 -1 30 -7z"/>
<path d="M2925 1575 c-26 -25 -27 -33 -27 -154 0 -97 -8 -119 -50 -124 -18 -2 18 -5 81 -5 108 -2 149 4 68 10 -62 4 -70 22 -65 137 3 55 0 105 -5 110 -5 5 0 17 14 30 13 11 19 21 15 21 -4 0 -18 -11 -31 -25z"/>
<path d="M3710 1593 c0 -5 9 -14 20 -21 11 -7 20 -8 20 -2 0 5 -9 14 -20 20 -11 6 -20 7 -20 3z"/>
<path d="M520 1582 c0 -12 50 -46 56 -39 3 3 -9 15 -25 27 -17 12 -31 17 -31 12z"/>
<path d="M183 1558 c-43 -48 -55 -106 -31 -151 17 -33 68 -76 114 -98 46 -21 154 -37 154 -22 0 5 -16 7 -35 5 -23 -3 -35 0 -35 8 0 8 -9 10 -26 6 -16 -4 -23 -3 -19 3 4 7 -1 8 -11 4 -12 -4 -15 -3 -10 5 4 7 2 10 -7 6 -18 -7 -74 51 -87 92 -6 18 -9 51 -7 73 2 22 0 38 -5 35 -16 -10 -8 10 14 33 12 13 19 23 16 23 -2 0 -14 -10 -25 -22z"/>
<path d="M3393 1558 c-78 -86 -48 -181 79 -248 42 -22 73 -26 84 -9 5 9 -1 10 -20 5 -18 -4 -25 -3 -21 3 4 7 -1 8 -11 4 -11 -4 -15 -3 -10 5 3 6 1 14 -5 18 -8 4 -9 3 -5 -4 13 -22 -15 -12 -40 13 -37 37 -54 87 -49 140 3 42 2 45 -12 33 -14 -11 -16 -11 -8 2 4 8 17 25 28 38 11 12 18 22 15 22 -2 0 -14 -10 -25 -22z"/>
<path d="M1033 1533 c12 -24 25 -43 30 -43 14 0 7 16 -23 50 l-30 35 23 -42z"/>
<path d="M4248 1553 c-26 -30 -38 -60 -38 -97 0 -36 18 -86 31 -86 4 0 21 -13 39 -30 40 -38 105 -59 123 -40 10 10 7 11 -16 6 -19 -4 -26 -3 -22 3 4 7 -1 8 -11 4 -11 -4 -15 -2 -11 4 4 6 -3 19 -16 29 -18 16 -19 16 -8 2 7 -10 9 -18 4 -18 -31 0 -77 92 -70 141 3 20 0 42 -6 48 -7 7 -5 16 8 31 10 11 16 20 13 20 -3 0 -12 -8 -20 -17z"/>
<path d="M2620 1515 c-24 -25 -42 -45 -39 -45 3 0 25 20 49 45 24 25 42 45 39 45 -3 0 -25 -20 -49 -45z"/>
<path d="M4940 1515 c-24 -25 -42 -45 -39 -45 3 0 25 20 49 45 24 25 42 45 39 45 -3 0 -25 -20 -49 -45z"/>
<path d="M1360 1499 l-45 -41 42 32 c37 27 61 51 51 50 -2 0 -23 -19 -48 -41z"/>
<path d="M2964 1425 c0 -60 1 -84 3 -52 2 32 2 81 0 110 -2 29 -3 3 -3 -58z"/>
<path d="M3274 1415 c0 -55 1 -76 3 -47 2 29 2 74 0 100 -2 26 -3 2 -3 -53z"/>
<path d="M672 1450 c0 -19 2 -27 5 -17 2 9 2 25 0 35 -3 9 -5 1 -5 -18z"/>
<path d="M4682 1450 c0 -19 2 -27 5 -17 2 9 2 25 0 35 -3 9 -5 1 -5 -18z"/>
<path d="M518 1349 c-25 -25 -47 -39 -63 -39 -14 0 -25 -4 -25 -10 0 -13 19 -13 60 2 29 9 35 9 46 -7 13 -17 14 -17 20 -1 8 20 -13 39 -34 31 -8 -3 -3 8 10 24 15 18 26 24 30 17 5 -7 8 -4 8 7 0 25 -10 20 -52 -24z"/>
<path d="M3739 1356 c-13 -19 -27 -32 -31 -30 -4 2 -13 -2 -20 -9 -7 -8 -20 -12 -29 -10 -9 3 -20 0 -23 -6 -4 -6 -24 -12 -44 -12 -30 -2 -32 -3 -10 -6 15 -2 56 3 90 12 56 14 64 14 74 0 15 -20 24 -19 24 4 0 11 -9 23 -20 26 -19 6 -19 7 -2 30 11 15 19 19 24 11 5 -7 8 -5 8 7 0 27 -15 20 -41 -17z"/>
<path d="M333 1062 c-43 -29 -71 -59 -93 -102 -7 -15 2 -8 25 18 42 48 90 76 168 97 l52 14 -55 0 c-44 1 -63 -5 -97 -27z"/>
<path d="M695 1084 c60 -13 105 -28 105 -35 0 -4 10 -11 21 -14 36 -12 84 -70 104 -126 17 -49 19 -93 23 -442 l3 -387 53 0 c49 0 96 19 96 40 0 5 -25 6 -56 3 -42 -5 -58 -2 -65 8 -5 8 -9 176 -9 375 0 392 -3 422 -55 491 -15 19 -48 48 -73 64 -39 24 -56 29 -106 28 -34 -1 -52 -3 -41 -5z"/>
<path d="M973 1084 c-7 -3 -13 -12 -13 -19 0 -7 -6 -15 -12 -17 -7 -3 21 -3 62 -1 41 2 109 3 150 3 41 0 96 0 123 0 43 1 47 -1 47 -22 0 -21 1 -21 15 6 27 51 14 54 -183 55 -97 0 -183 -3 -189 -5z"/>
<path d="M1686 1067 c-14 -13 -26 -33 -25 -43 0 -14 2 -15 6 -4 10 25 26 30 90 29 35 -1 65 0 67 2 2 2 77 3 165 1 157 -3 161 -3 161 -24 0 -21 0 -21 15 -2 18 24 19 50 1 57 -8 3 -113 6 -234 7 -219 1 -220 1 -246 -23z"/>
<path d="M2355 1071 c-52 -24 -115 -80 -139 -122 -17 -31 -15 -30 27 14 69 70 143 102 237 101 96 -1 141 -14 214 -62 61 -41 85 -71 86 -109 0 -26 18 -39 32 -25 14 14 -6 70 -42 121 -17 22 -53 54 -82 71 -51 29 -58 30 -173 30 -96 0 -128 -4 -160 -19z"/>
<path d="M2818 1083 c-10 -2 -18 -11 -18 -19 0 -8 -4 -14 -10 -14 -5 0 -9 -10 -9 -22 1 -16 3 -18 6 -6 2 9 11 19 19 22 8 3 96 6 196 7 134 1 182 -2 188 -11 6 -9 11 -7 19 8 9 18 8 23 -8 32 -19 10 -347 13 -383 3z"/>
<path d="M3270 1084 c-9 -3 -21 -14 -28 -24 -12 -19 -10 -20 25 -16 79 11 259 16 266 9 4 -4 25 -6 47 -4 33 2 39 -1 42 -20 3 -22 4 -21 18 5 25 48 3 54 -188 54 -92 0 -174 -2 -182 -4z"/>
<path d="M3767 1060 c-44 -28 -128 -136 -127 -164 1 -6 9 5 19 24 86 161 282 195 396 69 33 -37 35 -38 35 -15 0 77 30 90 183 80 89 -6 97 -9 98 -28 1 -17 2 -18 6 -3 2 9 9 17 14 17 17 0 9 29 -10 40 -21 11 -211 14 -248 4 -12 -3 -28 -19 -36 -35 l-14 -29 -19 21 c-35 39 -69 49 -162 49 -81 0 -92 -3 -135 -30z"/>
<path d="M4550 1065 c-50 -25 -130 -102 -142 -136 -5 -12 11 0 36 28 24 27 59 56 78 65 18 9 46 22 62 29 41 20 170 17 232 -4 46 -16 161 -87 141 -87 -5 0 -1 -7 7 -16 9 -8 19 -33 22 -54 5 -27 10 -37 20 -33 18 7 17 51 -1 83 -18 31 -19 43 -2 34 7 -4 9 -3 4 2 -5 5 -14 9 -20 9 -13 1 -11 45 2 58 5 5 96 7 202 6 107 -1 208 -1 224 -1 106 4 200 1 207 -6 4 -4 11 -66 16 -137 6 -114 9 -127 20 -107 18 31 6 257 -15 278 -12 11 -68 14 -311 14 -163 0 -307 -3 -319 -6 -13 -4 -23 -13 -23 -20 0 -8 -4 -14 -10 -14 -5 0 -10 -10 -10 -21 0 -21 -1 -21 -35 5 -62 48 -95 56 -222 56 -104 -1 -123 -4 -163 -25z"/>
<path d="M1481 1062 c-8 -14 -5 -17 22 -17 23 0 32 -5 38 -25 18 -60 124 -394 153 -485 18 -55 52 -162 76 -237 24 -75 48 -135 52 -132 4 3 7 184 6 402 l-3 397 -5 -354 -5 -355 -57 180 c-215 681 -202 644 -238 644 -18 0 -33 -7 -39 -18z"/>
<path d="M2406 984 c-15 -15 -35 -43 -43 -62 -17 -42 -29 -168 -19 -207 l7 -28 217 4 217 4 -1 -60 c-1 -70 -15 -119 -51 -172 l-25 -38 25 23 c53 49 104 222 78 262 -8 12 -49 16 -223 20 l-213 5 -3 70 c-4 89 13 149 50 180 16 14 26 25 21 25 -4 0 -21 -12 -37 -26z"/>
<path d="M3098 999 c-16 -9 -18 -31 -18 -222 0 -174 3 -222 18 -267 32 -100 65 -130 146 -130 29 0 49 6 64 20 31 29 27 41 -6 24 -22 -10 -37 -11 -68 -3 -49 14 -77 39 -106 98 -21 43 -22 58 -23 259 0 178 2 214 15 222 20 13 0 12 -22 -1z"/>
<path d="M3528 999 c-16 -9 -18 -31 -18 -232 -1 -242 -12 -328 -51 -381 -15 -20 -17 -26 -5 -17 9 8 29 35 44 60 l27 46 3 255 c2 223 5 257 19 268 20 14 5 16 -19 1z"/>
<path d="M4272 998 c-9 -9 -12 -126 -12 -464 0 -249 -3 -459 -6 -468 -5 -14 -28 -16 -144 -16 -102 0 -140 3 -143 13 -2 7 -3 6 -3 -3 2 -22 296 -28 296 -6 0 8 6 16 13 18 9 4 13 110 17 471 3 257 3 467 0 467 -4 0 -11 -5 -18 -12z"/>
<path d="M5190 994 c23 -28 33 -42 116 -154 43 -58 91 -121 106 -140 32 -40 30 -36 83 -110 21 -30 62 -84 89 -119 28 -36 51 -69 52 -75 4 -39 4 -39 19 -26 8 7 15 18 15 25 0 7 -101 147 -225 311 -156 206 -233 300 -247 302 -20 4 -21 2 -8 -14z"/>
<path d="M1199 974 l-24 -26 -3 -394 c-2 -217 1 -394 6 -394 4 0 15 23 24 50 9 28 12 50 7 50 -5 0 -9 144 -9 343 0 277 3 347 14 370 18 34 16 34 -15 1z"/>
<path d="M2013 983 c-10 -16 -13 -122 -13 -430 0 -398 1 -410 20 -431 12 -12 17 -22 13 -23 -21 -3 47 -17 84 -18 33 -1 41 -4 37 -16 -5 -12 -40 -15 -197 -18 l-192 -2 198 -3 c169 -2 197 0 197 13 0 8 5 15 11 15 6 0 9 10 7 23 -3 19 -11 23 -61 28 -32 4 -64 12 -70 18 -9 9 -13 131 -17 439 -4 348 -7 423 -17 405z"/>
<path d="M3852 977 c-40 -43 -55 -134 -50 -317 5 -179 14 -210 66 -250 15 -11 33 -25 40 -31 27 -23 110 10 133 53 l11 21 -36 -23 c-49 -29 -111 -23 -143 15 -36 41 -47 99 -47 260 0 157 13 246 41 277 24 26 10 22 -15 -5z"/>
<path d="M4597 968 c-31 -41 -44 -85 -52 -169 -5 -45 -3 -74 5 -89 l12 -23 215 6 c191 6 214 5 220 -9 9 -24 -15 -141 -38 -186 -11 -22 -15 -37 -9 -33 27 17 69 128 71 186 1 33 -1 63 -5 67 -4 4 -105 9 -224 12 l-217 5 1 82 c1 68 6 92 27 133 30 58 28 64 -6 18z"/>
<path d="M2902 704 c-1 -203 -5 -274 -15 -282 -6 -6 -28 -12 -47 -14 -24 -2 -36 -9 -38 -20 -7 -39 83 -13 98 28 6 16 9 132 7 293 l-2 266 -3 -271z"/>
<path d="M3334 710 c0 -140 2 -198 3 -128 2 71 2 185 0 255 -1 71 -3 13 -3 -127z"/>
<path d="M411 904 c-12 -15 -26 -45 -31 -68 -6 -22 -15 -52 -21 -66 l-10 -25 21 25 c11 14 24 43 30 65 6 22 17 52 25 68 18 34 12 35 -14 1z"/>
<path d="M1105 510 c0 -206 1 -291 2 -188 2 104 2 272 0 375 -1 104 -2 19 -2 -187z"/>
<path d="M2733 850 c4 -18 45 -26 59 -12 6 6 0 8 -17 4 -17 -3 -31 1 -37 9 -8 12 -9 11 -5 -1z"/>
<path d="M4953 833 c9 -2 25 -2 35 0 9 3 1 5 -18 5 -19 0 -27 -2 -17 -5z"/>
<path d="M1517 668 c-14 -46 -60 -189 -101 -318 -41 -129 -80 -248 -86 -265 -10 -28 -10 -29 6 -14 9 10 60 154 114 321 109 343 114 358 102 358 -4 0 -20 -37 -35 -82z"/>
<path d="M2143 700 c0 -30 2 -43 4 -27 2 15 2 39 0 55 -2 15 -4 2 -4 -28z"/>
<path d="M2340 585 c0 -68 21 -148 49 -179 13 -16 13 -18 1 -12 -8 4 -4 -2 9 -13 17 -15 37 -21 73 -21 44 0 54 4 84 34 19 19 34 40 33 48 0 10 -2 10 -6 0 -8 -21 -60 -42 -103 -42 -74 0 -110 62 -110 188 0 48 -3 62 -15 62 -12 0 -15 -14 -15 -65z"/>
<path d="M2603 580 c0 -41 2 -58 4 -37 2 20 2 54 0 75 -2 20 -4 3 -4 -38z"/>
<path d="M4545 568 c8 -85 37 -173 65 -195 21 -17 95 -16 130 2 16 9 36 29 45 45 21 41 19 42 -14 9 -24 -23 -38 -29 -74 -29 -86 0 -125 66 -127 218 0 22 -5 32 -16 32 -13 0 -14 -11 -9 -82z"/>
<path d="M4082 600 c0 -19 2 -27 5 -17 2 9 2 25 0 35 -3 9 -5 1 -5 -18z"/>
<path d="M5030 585 c-10 -12 -9 -16 6 -22 23 -8 54 -42 54 -58 0 -39 133 -111 230 -125 120 -18 142 -10 104 36 -8 10 -13 14 -9 7 6 -12 -23 -11 -130 3 -81 10 -165 66 -181 119 -8 26 -34 55 -49 55 -7 0 -18 -7 -25 -15z"/>
<path d="M5012 530 c0 -19 2 -27 5 -17 2 9 2 25 0 35 -3 9 -5 1 -5 -18z"/>
<path d="M4899 413 l-34 -38 38 34 c20 19 37 36 37 38 0 8 -8 0 -41 -34z"/>
<path d="M3070 418 c0 -7 -3 -31 -6 -53 -6 -38 -6 -39 9 -20 9 11 17 28 17 38 0 12 4 16 13 11 6 -4 3 2 -7 14 -22 25 -26 27 -26 10z"/>
<path d="M4070 395 c-9 -11 -10 -16 -2 -11 9 6 12 -21 12 -122 0 -139 -1 -142 -53 -142 -12 0 -29 -5 -37 -10 -25 -16 3 -33 43 -26 51 9 58 37 55 195 -3 121 -4 132 -18 116z"/>
<path d="M5022 370 c0 -19 2 -27 5 -17 2 9 2 25 0 35 -3 9 -5 1 -5 -18z"/>
<path d="M2923 333 c15 -2 39 -2 55 0 15 2 2 4 -28 4 -30 0 -43 -2 -27 -4z"/>
<path d="M2381 281 c-7 -5 -11 -13 -7 -19 5 -9 62 -26 77 -24 4 1 56 -31 115 -71 76 -50 114 -82 126 -105 16 -32 17 -33 28 -13 17 33 -1 54 -108 124 -178 117 -200 127 -231 108z"/>
<path d="M2500 95 c35 -36 67 -65 69 -65 3 0 -24 29 -59 65 -35 36 -67 65 -69 65 -3 0 24 -29 59 -65z"/>
<path d="M1033 43 c53 -2 141 -2 195 0 53 1 9 3 -98 3 -107 0 -151 -2 -97 -3z"/>
</g>
<g id="layer106" fill="#abadaa" stroke="none">
<path d="M1524 1475 c0 -82 2 -115 3 -72 2 43 2 110 0 150 -1 40 -3 5 -3 -78z"/>
<path d="M823 1603 c9 -2 25 -2 35 0 9 3 1 5 -18 5 -19 0 -27 -2 -17 -5z"/>
<path d="M1763 1603 c9 -2 25 -2 35 0 9 3 1 5 -18 5 -19 0 -27 -2 -17 -5z"/>
<path d="M1857 1581 c14 -13 20 -28 17 -39 -5 -14 -4 -14 4 -3 13 18 0 46 -25 55 -14 6 -13 3 4 -13z"/>
<path d="M2135 1452 c0 -117 -3 -146 -13 -144 -8 1 -11 -2 -7 -8 3 -5 25 -10 47 -10 l42 0 -22 20 c-20 19 -22 30 -22 144 0 87 -4 127 -12 134 -10 8 -13 -20 -13 -136z"/>
<path d="M2438 1465 c3 -113 5 -133 18 -128 22 8 19 226 -4 247 -16 14 -17 5 -14 -119z"/>
<path d="M3970 1457 c3 -78 2 -143 -2 -145 -23 -11 -2 -22 40 -21 26 0 40 3 32 6 -45 17 -49 30 -48 155 1 90 -3 123 -13 133 -12 12 -13 -6 -9 -128z"/>
<path d="M4758 1465 c3 -112 5 -133 18 -128 11 4 14 29 14 118 0 94 -3 114 -17 128 -17 15 -18 9 -15 -118z"/>
<path d="M5211 1571 c27 -37 29 -37 22 -11 -3 11 -14 25 -25 31 -18 10 -18 8 3 -20z"/>
<path d="M937 1578 c28 -13 53 -66 53 -110 0 -24 5 -35 15 -35 20 0 20 49 0 87 -16 31 -61 70 -79 69 -6 0 -1 -5 11 -11z"/>
<path d="M4548 1577 c38 -22 54 -54 55 -115 0 -31 2 -50 5 -42 3 8 11 18 17 22 23 14 0 80 -39 116 -20 17 -41 32 -48 32 -7 -1 -3 -6 10 -13z"/>
<path d="M1153 1495 c0 -33 2 -45 4 -27 2 18 2 45 0 60 -2 15 -4 0 -4 -33z"/>
<path d="M1460 1518 l-23 -33 26 24 26 24 4 -104 3 -104 2 113 c1 61 -2 112 -6 112 -5 0 -19 -15 -32 -32z"/>
<path d="M3244 1430 c0 -58 1 -81 3 -52 2 28 2 76 0 105 -2 28 -3 5 -3 -53z"/>
<path d="M2665 1490 c-16 -16 -27 -31 -24 -33 2 -2 17 11 32 30 36 41 31 43 -8 3z"/>
<path d="M4985 1490 c-16 -16 -27 -31 -24 -33 2 -2 17 11 32 30 36 41 31 43 -8 3z"/>
<path d="M1920 1495 c-7 -8 -18 -14 -24 -13 -21 4 -206 -74 -206 -87 0 -10 13 -8 53 9 28 13 74 31 100 41 42 15 114 64 96 65 -4 0 -12 -7 -19 -15z"/>
<path d="M2964 1420 c0 -52 1 -74 3 -47 2 26 2 68 0 95 -2 26 -3 4 -3 -48z"/>
<path d="M3274 1420 c0 -52 1 -74 3 -47 2 26 2 68 0 95 -2 26 -3 4 -3 -48z"/>
<path d="M5338 1503 c29 -2 74 -2 100 0 26 2 2 3 -53 3 -55 0 -76 -1 -47 -3z"/>
<path d="M2897 1429 c0 -39 6 -76 13 -83 8 -8 10 9 8 68 -2 44 -8 81 -13 83 -6 2 -9 -24 -8 -68z"/>
<path d="M5285 1463 c15 -24 30 -43 32 -43 7 0 -31 61 -46 73 -8 7 -2 -7 14 -30z"/>
<path d="M140 1450 c0 -28 17 -60 49 -88 32 -30 83 -62 96 -62 6 0 -3 8 -20 19 -42 26 -67 56 -86 104 -18 46 -39 60 -39 27z"/>
<path d="M596 1443 c8 -36 31 -73 50 -80 7 -3 11 -10 7 -16 -3 -6 -1 -7 5 -3 7 4 12 3 12 -3 0 -6 13 -17 30 -26 41 -21 51 -19 14 4 -37 22 -70 66 -79 104 -4 15 -16 32 -26 38 -18 9 -19 7 -13 -18z"/>
<path d="M3350 1446 c0 -33 54 -99 105 -128 11 -6 1 9 -22 35 -25 27 -44 59 -48 81 -8 41 -35 50 -35 12z"/>
<path d="M2580 1456 c0 -2 14 -9 31 -15 27 -9 30 -9 19 4 -11 13 -50 22 -50 11z"/>
<path d="M4210 1440 c0 -29 21 -70 37 -70 7 0 13 -4 13 -10 0 -11 69 -60 85 -60 5 0 -7 11 -28 25 -36 25 -77 88 -77 120 0 8 -7 15 -15 15 -8 0 -15 -9 -15 -20z"/>
<path d="M4900 1456 c0 -2 14 -9 31 -15 27 -9 30 -9 19 4 -11 13 -50 22 -50 11z"/>
<path d="M2658 1418 c7 -7 12 -21 12 -33 0 -14 6 -21 19 -21 12 0 17 5 13 16 -7 22 -33 50 -46 50 -6 0 -5 -5 2 -12z"/>
<path d="M4978 1418 c7 -7 12 -21 12 -33 0 -14 6 -21 19 -21 12 0 17 5 13 16 -7 22 -33 50 -46 50 -6 0 -5 -5 2 -12z"/>
<path d="M1153 1365 c0 -22 2 -30 4 -17 2 12 2 30 0 40 -3 9 -5 -1 -4 -23z"/>
<path d="M1610 1375 c0 -21 63 -85 82 -84 7 0 3 5 -8 11 -12 5 -28 22 -35 37 -8 14 -20 32 -26 39 -11 11 -13 10 -13 -3z"/>
<path d="M5380 1320 c26 -37 37 -43 46 -29 4 7 3 9 -4 5 -6 -3 -12 3 -14 15 -2 12 -13 26 -26 30 l-23 9 21 -30z"/>
<path d="M967 1324 c-16 -9 -27 -18 -24 -21 6 -5 67 24 67 32 0 8 -14 5 -43 -11z"/>
<path d="M2670 1319 c-19 -11 -43 -19 -54 -19 -11 0 -17 -3 -13 -6 7 -8 115 15 122 26 11 17 -22 17 -55 -1z"/>
<path d="M3801 1333 c-2 -27 12 -43 38 -42 l26 1 -24 7 c-13 3 -28 15 -32 26 -4 11 -8 15 -8 8z"/>
<path d="M4990 1319 c-19 -11 -43 -19 -54 -19 -11 0 -17 -3 -13 -6 7 -8 115 15 122 26 11 17 -22 17 -55 -1z"/>
<path d="M1216 1323 c-8 -8 -39 -13 -94 -15 -47 -2 -17 -18 34 -18 28 0 46 6 59 20 17 19 18 29 1 13z"/>
<path d="M2445 1310 c-18 -20 -18 -20 31 -19 27 0 42 3 34 6 -8 3 -22 12 -31 19 -14 12 -18 11 -34 -6z"/>
<path d="M2896 1309 c-19 -19 -19 -19 30 -19 36 0 45 3 34 10 -38 26 -45 27 -64 9z"/>
<path d="M4765 1310 c-18 -20 -18 -20 31 -19 27 0 42 3 34 6 -8 3 -22 12 -31 19 -14 12 -18 11 -34 -6z"/>
<path d="M528 1302 c9 -11 20 -17 25 -15 9 5 -18 33 -32 33 -6 0 -3 -8 7 -18z"/>
<path d="M1859 1309 c-11 -7 -9 -9 7 -9 11 0 25 -5 32 -12 7 -7 12 -8 12 -2 0 16 -36 33 -51 23z"/>
<path d="M1970 1306 c0 -12 9 -16 33 -15 21 1 25 3 12 6 -11 3 -26 10 -32 15 -10 8 -13 6 -13 -6z"/>
<path d="M3741 1299 c11 -11 23 -18 26 -15 7 7 -22 36 -36 36 -6 0 -2 -9 10 -21z"/>
<path d="M1470 1299 c0 -5 14 -9 32 -9 36 0 32 10 -6 14 -14 2 -26 -1 -26 -5z"/>
<path d="M3226 1299 c3 -5 17 -9 31 -9 32 0 23 12 -12 15 -14 2 -23 -1 -19 -6z"/>
<path d="M2318 1293 c12 -2 30 -2 40 0 9 3 -1 5 -23 4 -22 0 -30 -2 -17 -4z"/>
<path d="M4153 1293 c9 -2 25 -2 35 0 9 3 1 5 -18 5 -19 0 -27 -2 -17 -5z"/>
<path d="M368 1283 c12 -2 30 -2 40 0 9 3 -1 5 -23 4 -22 0 -30 -2 -17 -4z"/>
<path d="M818 1283 c12 -2 30 -2 40 0 9 3 -1 5 -23 4 -22 0 -30 -2 -17 -4z"/>
<path d="M1743 1283 c9 -2 25 -2 35 0 9 3 1 5 -18 5 -19 0 -27 -2 -17 -5z"/>
<path d="M3578 1283 c12 -2 30 -2 40 0 9 3 -1 5 -23 4 -22 0 -30 -2 -17 -4z"/>
<path d="M4438 1283 c12 -2 30 -2 40 0 9 3 -1 5 -23 4 -22 0 -30 -2 -17 -4z"/>
<path d="M332 1062 c-36 -25 -92 -85 -92 -101 0 -2 19 15 42 38 23 23 65 53 92 66 39 20 45 25 25 25 -13 0 -43 -13 -67 -28z"/>
<path d="M811 1057 c75 -38 112 -86 134 -172 12 -47 15 -128 15 -411 0 -395 -3 -380 72 -370 24 3 49 5 56 5 6 1 12 5 12 10 0 6 -24 7 -56 4 -42 -5 -58 -2 -65 8 -5 8 -9 176 -9 375 0 392 -3 422 -55 491 -33 43 -110 93 -143 93 -17 0 -6 -9 39 -33z"/>
<path d="M973 1084 c-15 -7 -18 -34 -4 -34 6 0 13 5 16 10 4 6 73 10 176 10 l169 0 0 -32 0 -33 15 29 c27 51 14 54 -183 55 -97 0 -183 -3 -189 -5z"/>
<path d="M1698 1079 c-22 -12 -23 -29 -3 -29 8 0 15 5 15 10 0 6 80 10 219 10 211 0 220 -1 226 -20 4 -11 11 -18 16 -15 14 9 11 42 -5 48 -27 10 -451 7 -468 -4z"/>
<path d="M2362 1075 c-46 -20 -107 -69 -134 -108 -18 -27 -14 -24 29 15 55 51 112 83 170 97 l38 9 -35 1 c-19 0 -50 -6 -68 -14z"/>
<path d="M2609 1074 c30 -8 69 -24 88 -35 46 -29 97 -105 97 -146 0 -34 12 -44 22 -19 7 18 -20 81 -52 123 -36 47 -120 93 -169 92 l-40 0 54 -15z"/>
<path d="M2818 1083 c-22 -5 -24 -33 -3 -33 8 0 15 5 15 10 0 6 65 10 175 10 172 0 176 0 184 -22 l8 -22 12 21 c9 19 8 24 -8 33 -19 10 -347 13 -383 3z"/>
<path d="M3268 1083 c-20 -5 -32 -33 -15 -33 7 0 18 5 23 10 7 7 72 9 175 8 l164 -3 5 -29 5 -29 15 27 c25 48 3 54 -188 54 -92 0 -174 -2 -184 -5z"/>
<path d="M3768 1061 c-25 -16 -60 -51 -78 -78 l-32 -48 37 43 c40 46 109 91 158 102 l32 8 -36 1 c-23 1 -51 -9 -81 -28z"/>
<path d="M3950 1081 c44 -9 78 -27 113 -59 15 -14 27 -21 27 -16 0 13 -48 58 -77 73 -12 6 -39 10 -60 10 l-38 -1 35 -7z"/>
<path d="M4130 1084 c-9 -3 -21 -13 -27 -23 -10 -16 -9 -18 8 -14 10 3 19 9 19 15 0 15 227 8 241 -8 15 -18 29 -18 29 1 0 8 -9 19 -19 25 -19 9 -218 12 -251 4z"/>
<path d="M4551 1066 c-45 -23 -141 -112 -141 -130 0 -6 24 12 53 40 66 64 94 81 159 99 l53 14 -40 0 c-23 0 -59 -10 -84 -23z"/>
<path d="M4797 1080 c87 -18 155 -69 192 -145 13 -28 16 -45 10 -57 -7 -14 -6 -18 6 -18 20 0 20 42 0 81 -9 16 -13 34 -10 40 4 5 1 8 -7 7 -7 -2 -12 5 -11 15 0 10 -2 16 -5 13 -3 -3 -20 6 -39 20 -47 35 -96 54 -140 53 l-38 -1 42 -8z"/>
<path d="M5008 1083 c-19 -5 -25 -33 -8 -33 6 0 10 5 10 10 0 6 110 10 310 10 286 0 311 -1 318 -17 4 -10 7 -75 7 -146 0 -109 2 -125 13 -110 10 13 12 39 8 98 -3 44 -6 99 -6 122 0 75 7 73 -333 72 -166 -1 -310 -3 -319 -6z"/>
<path d="M1479 1058 l-12 -22 28 18 c39 25 46 14 94 -139 111 -360 225 -703 233 -699 4 3 7 166 6 362 l-3 357 -5 -339 -5 -340 -57 180 c-215 681 -202 644 -238 644 -20 0 -33 -7 -41 -22z"/>
<path d="M3103 1003 c-16 -6 -18 -399 -3 -454 23 -83 94 -149 161 -149 21 0 45 7 53 16 23 22 20 24 -12 8 -22 -10 -37 -11 -68 -3 -49 14 -77 39 -106 98 -21 43 -22 58 -23 259 0 178 2 214 15 222 16 10 4 12 -17 3z"/>
<path d="M4283 1002 c-9 -6 -13 -122 -15 -470 -3 -395 0 -476 14 -459 1 1 5 212 8 470 3 257 5 467 5 467 0 0 -5 -4 -12 -8z"/>
<path d="M5206 999 c4 -8 106 -144 227 -304 184 -244 217 -293 212 -314 -5 -21 -4 -23 9 -12 9 8 16 19 16 26 0 15 -446 608 -462 614 -7 2 -8 -1 -2 -10z"/>
<path d="M1204 979 c-18 -20 -19 -44 -22 -391 -2 -204 1 -375 5 -379 5 -5 14 5 20 21 6 17 7 30 2 30 -5 0 -9 143 -9 343 0 277 3 347 14 370 18 32 15 34 -10 6z"/>
<path d="M2396 970 c-14 -17 -30 -47 -36 -68 -15 -54 -13 -167 3 -181 9 -7 89 -12 223 -13 l209 -3 -1 -58 c-1 -61 -24 -133 -57 -182 l-21 -30 21 18 c48 42 99 219 74 257 -8 12 -49 16 -223 20 l-213 5 -3 70 c-4 80 10 140 41 173 11 12 18 22 15 22 -4 0 -18 -14 -32 -30z"/>
<path d="M3517 753 c-4 -262 -8 -292 -53 -359 -15 -21 -19 -32 -10 -25 10 8 29 35 44 60 l27 46 5 263 c3 144 2 262 -2 262 -4 0 -8 -111 -11 -247z"/>
<path d="M3851 975 c-29 -38 -41 -111 -41 -259 0 -213 18 -272 94 -310 32 -16 44 -17 75 -7 21 6 46 21 57 33 19 22 19 22 -19 -1 -50 -30 -111 -24 -144 14 -36 41 -47 99 -47 260 0 157 13 246 41 277 9 10 13 18 10 18 -3 0 -15 -11 -26 -25z"/>
<path d="M2017 979 c-4 -8 -6 -199 -5 -423 l3 -408 23 -18 c13 -11 43 -22 67 -25 24 -4 46 -13 49 -21 9 -23 28 -16 24 9 -3 19 -11 23 -61 28 -32 4 -64 12 -70 18 -9 9 -13 130 -17 434 -3 232 -9 415 -13 406z"/>
<path d="M4592 958 c-24 -40 -31 -73 -34 -161 -2 -51 2 -71 12 -77 8 -6 108 -10 222 -10 191 0 207 -1 212 -18 11 -34 -28 -185 -57 -221 -10 -12 -9 -13 1 -7 28 17 71 127 73 187 1 33 -1 63 -5 67 -4 4 -105 9 -224 12 l-217 5 1 82 c1 61 6 92 22 124 26 52 22 63 -6 17z"/>
<path d="M407 897 c-18 -28 -41 -107 -33 -114 3 -3 10 5 15 18 13 32 39 119 36 119 -2 0 -10 -11 -18 -23z"/>
<path d="M1105 495 c0 -192 1 -270 2 -172 2 98 2 256 0 350 -1 95 -3 15 -2 -178z"/>
<path d="M3603 695 c0 -33 2 -45 4 -27 2 18 2 45 0 60 -2 15 -4 0 -4 -33z"/>
<path d="M1441 418 c-57 -178 -106 -330 -108 -338 -4 -12 -3 -12 7 -3 7 6 52 137 101 290 113 352 119 373 111 373 -5 0 -54 -145 -111 -322z"/>
<path d="M2353 571 c10 -124 36 -168 114 -190 33 -10 98 12 107 35 5 12 1 12 -24 -1 -16 -8 -47 -15 -70 -15 -74 0 -110 62 -110 188 0 40 -4 62 -11 62 -9 0 -10 -23 -6 -79z"/>
<path d="M2603 590 c0 -36 2 -50 4 -32 2 17 2 47 0 65 -2 17 -4 3 -4 -33z"/>
<path d="M4560 588 c0 -77 19 -147 49 -177 42 -42 116 -43 165 -2 27 23 18 34 -10 12 -33 -26 -100 -28 -133 -5 -32 23 -49 68 -57 155 -8 94 -14 101 -14 17z"/>
<path d="M5031 586 c-8 -9 -8 -16 -2 -20 5 -4 12 -2 16 4 12 20 25 9 50 -39 40 -79 95 -109 243 -130 77 -11 104 -10 90 4 -3 3 -27 8 -54 11 -100 10 -129 15 -170 33 -44 20 -91 64 -100 96 -8 26 -34 55 -49 55 -7 0 -18 -6 -24 -14z"/>
<path d="M2884 421 c-5 -5 -25 -11 -44 -13 -24 -2 -36 -9 -38 -20 -4 -22 14 -23 34 -3 9 8 24 15 34 15 10 0 22 5 25 11 9 14 1 21 -11 10z"/>
<path d="M3072 381 c-16 -51 -15 -59 3 -35 8 10 15 27 15 37 0 12 4 16 13 11 8 -5 8 -2 -2 9 -7 9 -14 17 -16 17 -1 0 -7 -17 -13 -39z"/>
<path d="M4064 388 c-4 -7 -3 -8 4 -4 8 5 12 -30 15 -121 l3 -128 2 133 c2 122 -4 153 -24 120z"/>
<path d="M2918 333 c12 -2 30 -2 40 0 9 3 -1 5 -23 4 -22 0 -30 -2 -17 -4z"/>
<path d="M2380 280 c-12 -7 -12 -12 -2 -22 10 -10 15 -10 22 2 12 19 46 3 179 -85 125 -82 133 -89 125 -123 -5 -26 -5 -26 10 -8 22 27 20 34 -14 66 -40 38 -269 180 -289 180 -9 0 -23 -5 -31 -10z"/>
<path d="M4027 120 c-45 -8 -55 -16 -38 -33 9 -9 14 -9 21 3 9 15 13 16 50 19 11 0 20 6 20 11 0 6 -3 9 -7 9 -5 -1 -25 -5 -46 -9z"/>
<path d="M2530 65 c19 -19 36 -35 39 -35 3 0 -10 16 -29 35 -19 19 -36 35 -39 35 -3 0 10 -16 29 -35z"/>
</g>


</svg>