<?xml version="1.0" standalone="no"?>
<!DOCTYPE svg PUBLIC "-//W3C//DTD SVG 20010904//EN"
 "http://www.w3.org/TR/2001/REC-SVG-20010904/DTD/svg10.dtd">
<svg version="1.0" xmlns="http://www.w3.org/2000/svg"
 width="512.000000pt" height="512.000000pt" viewBox="0 0 512.000000 512.000000"
 preserveAspectRatio="xMidYMid meet">
<metadata>
Created by potrace 1.16, written by Peter Selinger 2001-2019
</metadata>
<g transform="translate(0.000000,512.000000) scale(0.100000,-0.100000)"
fill="#000000" stroke="none">
<path d="M2040 3877 c-19 -9 -181 -12 -645 -12 l-620 0 -3 -32 c-5 -49 52 -80
203 -111 66 -13 140 -28 165 -33 73 -15 92 -42 101 -146 11 -130 10 -1220 -1
-1568 -6 -165 -15 -325 -21 -355 -28 -138 -135 -206 -281 -180 -155 28 -246
122 -287 295 -60 253 -57 247 -127 216 -25 -12 -52 -21 -59 -21 -20 0 -25 -25
-25 -123 -1 -95 -15 -344 -25 -432 l-6 -50 45 -28 c82 -51 391 -82 564 -57 37
5 272 11 522 13 250 2 463 7 473 11 20 10 24 71 5 83 -7 4 -43 6 -80 4 -74 -3
-165 19 -211 51 -15 11 -37 38 -50 61 -21 41 -22 51 -22 327 0 826 6 1426 15
1440 19 31 23 25 315 -545 59 -115 172 -334 250 -485 197 -379 361 -700 408
-795 50 -101 81 -135 121 -135 51 0 27 -38 256 405 191 370 242 468 360 700
70 138 183 356 250 485 67 129 139 269 160 310 41 80 53 91 66 63 14 -30 18
-1427 4 -1598 -13 -168 -23 -202 -71 -237 -45 -34 -74 -40 -209 -47 -110 -6
-115 -7 -118 -29 -2 -14 3 -24 15 -28 10 -3 32 -13 48 -22 27 -14 83 -17 485
-20 250 -1 498 1 550 5 l95 8 0 44 0 44 -100 1 c-115 2 -173 22 -218 75 -53
63 -52 42 -52 1076 0 877 1 965 17 1015 31 101 113 153 267 172 97 12 102 16
91 73 -4 22 -11 29 -25 28 -11 -1 -173 -5 -360 -8 -420 -7 -400 -1 -473 -145
-86 -170 -273 -533 -489 -950 -196 -380 -290 -562 -316 -615 -96 -192 -114
-221 -136 -213 -6 1 -47 75 -92 163 -45 88 -111 216 -146 285 -497 957 -693
1343 -693 1363 0 34 18 45 86 58 84 15 93 18 109 42 12 19 12 29 1 67 -14 50
-39 60 -86 37z"/>
</g>
</svg>
