<svg xmlns="http://www.w3.org/2000/svg" xmlns:xlink="http://www.w3.org/1999/xlink" width="63" height="47" viewBox="0 0 63 47"><defs><style>.a,.c{fill:#fff;}.a{stroke:#707070;}.b{clip-path:url(#a);}</style><clipPath id="a"><rect class="a" width="63" height="47" transform="translate(342 5617.884)"/></clipPath></defs><g class="b" transform="translate(-342 -5617.884)"><path class="c" d="M.152,46.884l3.3-12.039a23.23,23.23,0,1,1,9.021,8.808L.152,46.884Zm12.887-7.437a19.264,19.264,0,1,0-5.358-5.21L5.729,41.363l7.31-1.916ZM35.284,28.773c-.145-.242-.531-.387-1.113-.678s-3.434-1.7-3.968-1.889-.918-.291-1.307.291-1.5,1.889-1.838,2.276-.678.436-1.258.145a15.844,15.844,0,0,1-4.669-2.881A17.475,17.475,0,0,1,17.9,22.014c-.338-.58-.035-.895.254-1.184.262-.26.58-.678.871-1.018a3.808,3.808,0,0,0,.586-.967,1.067,1.067,0,0,0-.049-1.018c-.147-.289-1.307-3.147-1.789-4.309-.473-1.131-.951-.979-1.307-1l-1.113-.02a2.127,2.127,0,0,0-1.547.727,6.514,6.514,0,0,0-2.032,4.843c0,2.858,2.08,5.618,2.37,6.005s4.093,6.251,9.916,8.765a33.589,33.589,0,0,0,3.309,1.223,7.979,7.979,0,0,0,3.657.231c1.115-.166,3.434-1.4,3.919-2.76a4.836,4.836,0,0,0,.338-2.762Z" transform="translate(350.017 5618)"/></g></svg>